<svg xmlns="http://www.w3.org/2000/svg" width="512" height="512" viewBox="0 0 512 512" version="1.1">
	<path d="M 244.579 94.278 C 238.572 104.300, 233.589 112.608, 233.505 112.741 C 233.421 112.873, 222.360 111.861, 208.926 110.492 C 195.492 109.122, 184.110 108.001, 183.632 108.001 C 183.155 108, 187.087 111.552, 192.370 115.893 C 207.690 128.482, 209.624 130.212, 207.500 129.427 C 206.400 129.021, 200.325 127.122, 194 125.207 C 183.929 122.158, 181.071 121.712, 171 121.613 C 151.297 121.420, 137.853 126.423, 119.895 140.628 C 106.413 151.294, 96.493 165.459, 88.883 184.911 C 80.175 207.171, 76 230.438, 76 256.708 C 76 281.698, 78.919 300.954, 85.628 320.230 C 104.084 373.253, 142.284 404.834, 198 413.131 C 206.420 414.385, 232.145 414.870, 249.500 414.102 C 254.450 413.883, 267.050 414.055, 277.500 414.484 C 304.458 415.592, 321.579 413.491, 342.671 406.486 C 389.220 391.027, 421.749 351.942, 432.493 298.558 C 435.706 282.592, 437.362 262.123, 436.542 248.500 C 433.797 202.906, 420.502 167.029, 398.662 146.284 C 372.839 121.755, 346.176 115.369, 314.181 126.051 C 309.454 127.629, 305.461 128.794, 305.307 128.641 C 305.154 128.487, 310.670 123.728, 317.565 118.065 C 324.461 112.403, 329.967 107.673, 329.801 107.556 C 329.636 107.439, 319.600 108.370, 307.500 109.625 C 295.400 110.881, 283.925 111.916, 282 111.926 C 278.527 111.945, 278.416 111.806, 267.670 93.972 C 261.714 84.088, 256.539 76.012, 256.170 76.028 C 255.802 76.043, 250.585 84.255, 244.579 94.278" stroke="none" fill="black" fill-rule="evenodd"/>
</svg>